<svg xmlns="http://www.w3.org/2000/svg" viewBox="0 0 100 100">
  <rect width="100" height="100" rx="0" fill="#000"/>
  <rect x="46" y="8" width="8" height="44" rx="3" fill="white" transform="rotate(0 50 50)"/>
  <rect x="46" y="8" width="8" height="44" rx="3" fill="white" transform="rotate(36 50 50)"/>
  <rect x="46" y="8" width="8" height="44" rx="3" fill="white" transform="rotate(72 50 50)"/>
  <rect x="46" y="8" width="8" height="44" rx="3" fill="white" transform="rotate(108 50 50)"/>
  <rect x="46" y="8" width="8" height="44" rx="3" fill="white" transform="rotate(144 50 50)"/>
  <rect x="46" y="8" width="8" height="44" rx="3" fill="white" transform="rotate(180 50 50)"/>
  <rect x="46" y="8" width="8" height="44" rx="3" fill="white" transform="rotate(216 50 50)"/>
  <rect x="46" y="8" width="8" height="44" rx="3" fill="white" transform="rotate(252 50 50)"/>
  <rect x="46" y="8" width="8" height="44" rx="3" fill="white" transform="rotate(288 50 50)"/>
  <rect x="46" y="8" width="8" height="44" rx="3" fill="white" transform="rotate(324 50 50)"/>
</svg>
